<svg width="16" height="16" viewBox="0 0 16 16" fill="none" xmlns="http://www.w3.org/2000/svg">
<path fill-rule="evenodd" clip-rule="evenodd" d="M14.0462 14.9796C13.8507 14.9793 13.6647 14.895 13.5356 14.7481L10.9076 11.7729C9.28604 12.7944 7.26491 12.9501 5.50599 12.1891C3.74706 11.4281 2.47684 9.8483 2.11123 7.96699C1.63097 5.53905 2.73474 3.07228 4.8651 1.81248C6.99547 0.552682 9.68884 0.773988 11.585 2.36463C13.4811 3.95528 14.1675 6.56914 13.2973 8.88612C13.1638 9.23769 12.7706 9.41449 12.419 9.281C12.0675 9.14752 11.8907 8.7543 12.0242 8.40273C12.5342 7.04576 12.3551 5.52574 11.5435 4.32456C10.7319 3.12337 9.38846 2.39 7.93916 2.35693C6.58758 2.3154 5.29202 2.8979 4.42606 3.93646C3.01733 5.62071 3.03936 8.07843 4.47805 9.73716C5.91675 11.3959 8.34667 11.7651 10.2131 10.6086C10.7809 10.2748 11.5062 10.3952 11.9357 10.8946L14.5637 13.8698C14.74 14.0706 14.7827 14.356 14.6726 14.5995C14.5626 14.843 14.3203 14.9997 14.053 15L14.0462 14.9796Z" fill="white"/>
</svg>
